{
	"asset":{
		"generator":"Khronos glTF Blender I/O v3.5.30",
		"version":"2.0"
	},
	"scene":0,
	"scenes":[
		{
			"name":"Scene",
			"nodes":[
				0,
				1,
				2
			]
		}
	],
	"nodes":[
		{
			"mesh":0,
			"name":"Plant1"
		},
		{
			"mesh":1,
			"name":"Plant2"
		},
		{
			"mesh":2,
			"name":"Robot"
		}
	],
	"meshes":[
		{
			"name":"Cube.001",
			"primitives":[
				{
					"attributes":{
						"POSITION":0,
						"TEXCOORD_0":1,
						"NORMAL":2
					},
					"indices":3
				}
			]
		},
		{
			"name":"Cylinder",
			"primitives":[
				{
					"attributes":{
						"POSITION":4,
						"TEXCOORD_0":5,
						"NORMAL":6
					},
					"indices":7
				}
			]
		},
		{
			"name":"Sphere",
			"primitives":[
				{
					"attributes":{
						"POSITION":8,
						"TEXCOORD_0":9,
						"NORMAL":10
					},
					"indices":11
				}
			]
		}
	],
	"accessors":[
		{
			"bufferView":0,
			"componentType":5126,
			"count":48,
			"max":[
				2.5,
				1,
				1
			],
			"min":[
				1.5,
				0,
				-1
			],
			"type":"VEC3"
		},
		{
			"bufferView":1,
			"componentType":5126,
			"count":48,
			"type":"VEC2"
		},
		{
			"bufferView":2,
			"componentType":5126,
			"count":48,
			"type":"VEC3"
		},
		{
			"bufferView":3,
			"componentType":5123,
			"count":84,
			"type":"SCALAR"
		},
		{
			"bufferView":4,
			"componentType":5126,
			"count":384,
			"max":[
				0.30000001192092896,
				0.5,
				-2.700000047683716
			],
			"min":[
				-0.30000001192092896,
				0,
				-3.299999952316284
			],
			"type":"VEC3"
		},
		{
			"bufferView":5,
			"componentType":5126,
			"count":384,
			"type":"VEC2"
		},
		{
			"bufferView":6,
			"componentType":5126,
			"count":384,
			"type":"VEC3"
		},
		{
			"bufferView":7,
			"componentType":5123,
			"count":756,
			"type":"SCALAR"
		},
		{
			"bufferView":8,
			"componentType":5126,
			"count":1984,
			"max":[
				0.49999985098838806,
				1,
				0.8999999761581421
			],
			"min":[
				-0.4999995231628418,
				3.2782554626464844e-07,
				-0.8999999761581421
			],
			"type":"VEC3"
		},
		{
			"bufferView":9,
			"componentType":5126,
			"count":1984,
			"type":"VEC2"
		},
		{
			"bufferView":10,
			"componentType":5126,
			"count":1984,
			"type":"VEC3"
		},
		{
			"bufferView":11,
			"componentType":5123,
			"count":2880,
			"type":"SCALAR"
		}
	],
	"bufferViews":[
		{
			"buffer":0,
			"byteLength":576,
			"byteOffset":0,
			"target":34962
		},
		{
			"buffer":0,
			"byteLength":384,
			"byteOffset":576,
			"target":34962
		},
		{
			"buffer":0,
			"byteLength":576,
			"byteOffset":960,
			"target":34962
		},
		{
			"buffer":0,
			"byteLength":168,
			"byteOffset":1536,
			"target":34963
		},
		{
			"buffer":0,
			"byteLength":4608,
			"byteOffset":1704,
			"target":34962
		},
		{
			"buffer":0,
			"byteLength":3072,
			"byteOffset":6312,
			"target":34962
		},
		{
			"buffer":0,
			"byteLength":4608,
			"byteOffset":9384,
			"target":34962
		},
		{
			"buffer":0,
			"byteLength":1512,
			"byteOffset":13992,
			"target":34963
		},
		{
			"buffer":0,
			"byteLength":23808,
			"byteOffset":15504,
			"target":34962
		},
		{
			"buffer":0,
			"byteLength":15872,
			"byteOffset":39312,
			"target":34962
		},
		{
			"buffer":0,
			"byteLength":23808,
			"byteOffset":55184,
			"target":34962
		},
		{
			"buffer":0,
			"byteLength":5760,
			"byteOffset":78992,
			"target":34963
		}
	],
	"buffers":[
		{
			"byteLength":84752,
			"uri":"scene.bin"
		}
	]
}
